<?xml version="1.0" encoding="UTF-8" standalone="no"?>
<svg
   width="317.89487"
   height="80"
   viewBox="0 0 639.94053 156.72457"
   version="1.1"
   id="svg16"
   sodipodi:docname="temphia.svg"
   inkscape:version="1.1.2 (0a00cf5339, 2022-02-04)"
   inkscape:export-filename="/home/madman/zhome/code/temphia/temphia/contrib/temphia.png"
   inkscape:export-xdpi="96"
   inkscape:export-ydpi="96"
   xmlns:inkscape="http://www.inkscape.org/namespaces/inkscape"
   xmlns:sodipodi="http://sodipodi.sourceforge.net/DTD/sodipodi-0.dtd"
   xmlns="http://www.w3.org/2000/svg"
   xmlns:svg="http://www.w3.org/2000/svg">
  <defs
     id="defs20" />
  <sodipodi:namedview
     id="namedview18"
     pagecolor="#ffffff"
     bordercolor="#666666"
     borderopacity="1.0"
     inkscape:pageshadow="2"
     inkscape:pageopacity="0.0"
     inkscape:pagecheckerboard="0"
     showgrid="false"
     inkscape:zoom="1.9310599"
     inkscape:cx="121.17697"
     inkscape:cy="104.86469"
     inkscape:window-width="1920"
     inkscape:window-height="1031"
     inkscape:window-x="0"
     inkscape:window-y="25"
     inkscape:window-maximized="1"
     inkscape:current-layer="svg16" />
  <text
     xml:space="preserve"
     style="font-style:normal;font-variant:normal;font-weight:normal;font-stretch:normal;font-size:171.85px;line-height:1.25;font-family:NATS;-inkscape-font-specification:NATS;fill:#925bd5;fill-opacity:1;stroke:none;stroke-width:5.37001"
     x="163.19077"
     y="114.13184"
     id="text1762"><tspan
       sodipodi:role="line"
       id="tspan1760"
       style="font-style:normal;font-variant:normal;font-weight:normal;font-stretch:normal;font-size:171.85px;font-family:NATS;-inkscape-font-specification:NATS;fill:#925bd5;fill-opacity:1;stroke-width:5.37001"
       x="163.19077"
       y="114.13184">emphia</tspan></text>
  <g
     id="g14753"
     transform="translate(-165.30067,-239.63063)">
    <g
       fill="#ffffff"
       id="g14709"
       transform="matrix(2.6676659,0,0,2.6676659,158.00228,215.75447)">
      <path
         d="m 26.613,15.364 a 0.26,0.26 0 0 0 -0.264,0.259 l -0.007,0.905 a 3.79,3.79 0 0 0 -0.465,0.06 l -0.228,-0.879 a 0.26134125,0.26134125 0 1 0 -0.506,0.131 l 0.228,0.88 a 3.79,3.79 0 0 0 -0.435,0.174 l -0.447,-0.789 a 0.26152868,0.26152868 0 0 0 -0.455,0.258 l 0.447,0.79 a 3.79,3.79 0 0 0 -0.373,0.283 L 23.47,16.788 a 0.26163811,0.26163811 0 1 0 -0.373,0.367 l 0.636,0.647 a 3.79,3.79 0 0 0 -0.289,0.369 l -0.781,-0.459 a 0.26154636,0.26154636 0 1 0 -0.265,0.451 l 0.784,0.461 a 3.79,3.79 0 0 0 -0.183,0.431 l -0.876,-0.242 a 0.26140821,0.26140821 0 0 0 -0.139,0.504 l 0.873,0.242 -0.045,0.285 0.597,0.005 c 0.193,-1.592 1.544,-2.79 3.148,-2.792 1.624,0.002 2.984,1.229 3.153,2.843 l 0.627,0.005 -0.041,-0.285 0.879,-0.228 a 0.26134125,0.26134125 0 0 0 -0.131,-0.506 l -0.88,0.228 A 3.79,3.79 0 0 0 29.99,18.679 l 0.789,-0.447 a 0.26152868,0.26152868 0 1 0 -0.258,-0.455 l -0.79,0.447 a 3.79,3.79 0 0 0 -0.283,-0.373 l 0.648,-0.638 A 0.26163811,0.26163811 0 1 0 29.729,16.84 l -0.647,0.636 a 3.79,3.79 0 0 0 -0.369,-0.289 l 0.459,-0.781 a 0.26154636,0.26154636 0 1 0 -0.451,-0.265 l -0.461,0.784 a 3.79,3.79 0 0 0 -0.43,-0.183 l 0.242,-0.876 a 0.26154158,0.26154158 0 0 0 -0.504,-0.14 l -0.242,0.873 a 3.79,3.79 0 0 0 -0.464,-0.062 l 0.007,-0.909 A 0.26,0.26 0 0 0 26.61,15.364 Z"
         id="path14699" />
      <ellipse
         ry="0.93800002"
         rx="0.91600001"
         cy="19.212999"
         cx="27.200001"
         id="ellipse14701" />
      <path
         d="m 43.905,15.364 a 0.26,0.26 0 0 0 -0.264,0.259 l -0.007,0.905 a 3.79,3.79 0 0 0 -0.465,0.06 l -0.228,-0.879 a 0.26134125,0.26134125 0 0 0 -0.506,0.131 l 0.228,0.88 a 3.79,3.79 0 0 0 -0.435,0.174 l -0.447,-0.789 a 0.26152868,0.26152868 0 0 0 -0.455,0.258 l 0.447,0.79 A 3.79,3.79 0 0 0 41.4,17.436 l -0.638,-0.648 a 0.26163811,0.26163811 0 1 0 -0.373,0.367 l 0.636,0.647 a 3.79,3.79 0 0 0 -0.289,0.369 l -0.781,-0.459 a 0.26154636,0.26154636 0 1 0 -0.265,0.451 l 0.784,0.461 a 3.79,3.79 0 0 0 -0.183,0.431 l -0.876,-0.242 a 0.26140821,0.26140821 0 0 0 -0.139,0.504 l 0.873,0.242 -0.045,0.285 0.597,0.005 c 0.193,-1.592 1.544,-2.79 3.148,-2.792 1.624,0.002 2.984,1.229 3.153,2.843 l 0.627,0.005 -0.041,-0.285 0.879,-0.228 a 0.26134125,0.26134125 0 1 0 -0.131,-0.506 l -0.88,0.228 a 3.79,3.79 0 0 0 -0.174,-0.435 l 0.789,-0.447 a 0.26152868,0.26152868 0 0 0 -0.258,-0.455 l -0.79,0.447 A 3.79,3.79 0 0 0 46.74,17.851 l 0.648,-0.638 A 0.26163811,0.26163811 0 1 0 47.021,16.84 l -0.647,0.636 a 3.79,3.79 0 0 0 -0.369,-0.289 l 0.459,-0.781 a 0.26154636,0.26154636 0 1 0 -0.451,-0.265 l -0.461,0.784 a 3.79,3.79 0 0 0 -0.43,-0.183 l 0.242,-0.876 a 0.26154158,0.26154158 0 0 0 -0.504,-0.14 l -0.242,0.873 a 3.79,3.79 0 0 0 -0.464,-0.062 l 0.007,-0.909 a 0.26,0.26 0 0 0 -0.259,-0.264 z"
         id="path14703" />
      <ellipse
         cx="44.493"
         cy="19.306999"
         rx="0.91600001"
         ry="0.93800002"
         id="ellipse14705" />
      <path
         d="m 17.178,25.113 30.918,-0.44 -1.145,6.518 -29.597,-3.171 z m 11.715,5.373 8.632,2.026 -0.088,28.011 -3.435,0.617 z"
         id="path14707" />
    </g>
    <rect
       style="fill:#925bd5;fill-opacity:1;stroke-width:4.32609"
       id="rect14711"
       width="161.04457"
       height="161.04457"
       x="165.30067"
       y="237.2757" />
    <g
       fill="#ffffff"
       id="g14723"
       transform="matrix(2.6676659,0,0,2.6676659,158.00228,215.75447)">
      <path
         d="m 26.613,15.364 a 0.26,0.26 0 0 0 -0.264,0.259 l -0.007,0.905 a 3.79,3.79 0 0 0 -0.465,0.06 l -0.228,-0.879 a 0.26134125,0.26134125 0 1 0 -0.506,0.131 l 0.228,0.88 a 3.79,3.79 0 0 0 -0.435,0.174 l -0.447,-0.789 a 0.26152868,0.26152868 0 0 0 -0.455,0.258 l 0.447,0.79 a 3.79,3.79 0 0 0 -0.373,0.283 L 23.47,16.788 a 0.26163811,0.26163811 0 1 0 -0.373,0.367 l 0.636,0.647 a 3.79,3.79 0 0 0 -0.289,0.369 l -0.781,-0.459 a 0.26154636,0.26154636 0 1 0 -0.265,0.451 l 0.784,0.461 a 3.79,3.79 0 0 0 -0.183,0.431 l -0.876,-0.242 a 0.26140821,0.26140821 0 0 0 -0.139,0.504 l 0.873,0.242 -0.045,0.285 0.597,0.005 c 0.193,-1.592 1.544,-2.79 3.148,-2.792 1.624,0.002 2.984,1.229 3.153,2.843 l 0.627,0.005 -0.041,-0.285 0.879,-0.228 a 0.26134125,0.26134125 0 0 0 -0.131,-0.506 l -0.88,0.228 A 3.79,3.79 0 0 0 29.99,18.679 l 0.789,-0.447 a 0.26152868,0.26152868 0 1 0 -0.258,-0.455 l -0.79,0.447 a 3.79,3.79 0 0 0 -0.283,-0.373 l 0.648,-0.638 A 0.26163811,0.26163811 0 1 0 29.729,16.84 l -0.647,0.636 a 3.79,3.79 0 0 0 -0.369,-0.289 l 0.459,-0.781 a 0.26154636,0.26154636 0 1 0 -0.451,-0.265 l -0.461,0.784 a 3.79,3.79 0 0 0 -0.43,-0.183 l 0.242,-0.876 a 0.26154158,0.26154158 0 0 0 -0.504,-0.14 l -0.242,0.873 a 3.79,3.79 0 0 0 -0.464,-0.062 l 0.007,-0.909 A 0.26,0.26 0 0 0 26.61,15.364 Z"
         id="path14713" />
      <ellipse
         ry="0.93800002"
         rx="0.91600001"
         cy="19.212999"
         cx="27.200001"
         id="ellipse14715" />
      <path
         d="m 43.905,15.364 a 0.26,0.26 0 0 0 -0.264,0.259 l -0.007,0.905 a 3.79,3.79 0 0 0 -0.465,0.06 l -0.228,-0.879 a 0.26134125,0.26134125 0 0 0 -0.506,0.131 l 0.228,0.88 a 3.79,3.79 0 0 0 -0.435,0.174 l -0.447,-0.789 a 0.26152868,0.26152868 0 0 0 -0.455,0.258 l 0.447,0.79 A 3.79,3.79 0 0 0 41.4,17.436 l -0.638,-0.648 a 0.26163811,0.26163811 0 1 0 -0.373,0.367 l 0.636,0.647 a 3.79,3.79 0 0 0 -0.289,0.369 l -0.781,-0.459 a 0.26154636,0.26154636 0 1 0 -0.265,0.451 l 0.784,0.461 a 3.79,3.79 0 0 0 -0.183,0.431 l -0.876,-0.242 a 0.26140821,0.26140821 0 0 0 -0.139,0.504 l 0.873,0.242 -0.045,0.285 0.597,0.005 c 0.193,-1.592 1.544,-2.79 3.148,-2.792 1.624,0.002 2.984,1.229 3.153,2.843 l 0.627,0.005 -0.041,-0.285 0.879,-0.228 a 0.26134125,0.26134125 0 1 0 -0.131,-0.506 l -0.88,0.228 a 3.79,3.79 0 0 0 -0.174,-0.435 l 0.789,-0.447 a 0.26152868,0.26152868 0 0 0 -0.258,-0.455 l -0.79,0.447 A 3.79,3.79 0 0 0 46.74,17.851 l 0.648,-0.638 A 0.26163811,0.26163811 0 1 0 47.021,16.84 l -0.647,0.636 a 3.79,3.79 0 0 0 -0.369,-0.289 l 0.459,-0.781 a 0.26154636,0.26154636 0 1 0 -0.451,-0.265 l -0.461,0.784 a 3.79,3.79 0 0 0 -0.43,-0.183 l 0.242,-0.876 a 0.26154158,0.26154158 0 0 0 -0.504,-0.14 l -0.242,0.873 a 3.79,3.79 0 0 0 -0.464,-0.062 l 0.007,-0.909 a 0.26,0.26 0 0 0 -0.259,-0.264 z"
         id="path14717" />
      <ellipse
         cx="44.493"
         cy="19.306999"
         rx="0.91600001"
         ry="0.93800002"
         id="ellipse14719" />
      <path
         d="m 17.178,25.113 30.918,-0.44 -1.145,6.518 -29.597,-3.171 z m 11.715,5.373 8.632,2.026 -0.088,28.011 -3.435,0.617 z"
         id="path14721" />
    </g>
  </g>
</svg>
